<?xml version="1.0" encoding="UTF-8"?>
<svg xmlns="http://www.w3.org/2000/svg" viewBox="0 0 512 512" role="img" aria-label="PreAngel logo">
  <path d="M 194.932 135.302 C 203.48 142.858 210.875 151.108 217.913 160.07 C 218.797 161.175 219.681 162.28 220.565 163.385 C 232.351 178.249 245.252 195.269 243.339 215.16 C 241.021 226.207 237.318 234.437 227.977 240.984 C 219.358 246.574 209.882 247.04 199.902 245.884 C 191.201 243.716 183.349 239.223 175.406 235.169 C 153.846 224.284 130.216 223.042 107.203 230.125 C 86.071 237.643 70.295 251.469 60.257 271.575 C 52.403 290.309 52.089 308.189 57.939 327.459 C 58.221 328.418 58.502 329.377 58.792 330.364 C 65.144 348.816 80.455 362.262 97.469 370.631 C 112.389 377.071 128.366 378.411 143.753 373.015 C 165.009 364.087 180.082 347.779 193.546 329.578 C 194.048 328.905 194.55 328.233 195.068 327.54 C 209.629 307.916 221.224 286.451 232.744 264.953 C 233.37 263.786 233.996 262.619 234.641 261.416 C 236.658 257.652 238.674 253.887 240.69 250.121 C 243.337 245.177 245.986 240.233 248.636 235.289 C 249.204 234.229 249.773 233.168 250.358 232.075 C 267.497 200.158 285.489 168.01 311.142 142.06 C 312.117 141.059 313.092 140.058 314.097 139.027 C 331.796 121.79 353.319 111.911 378.242 112.169 C 390.062 112.862 401.159 115.565 411.787 120.872 C 412.818 121.381 413.849 121.89 414.912 122.415 C 444.714 138.427 462.197 171.834 471.814 203.041 C 479.2 228.283 482.961 254.581 483.828 280.845 C 483.894 282.617 483.894 282.617 483.961 284.424 C 484.57 316.684 478.262 347.299 455.658 371.563 C 440.147 387.565 418.606 399.031 395.995 399.715 C 365.612 400.144 342.973 389.597 321.117 368.406 C 314.839 362.191 309.13 355.643 303.726 348.648 C 303.005 347.722 303.005 347.722 302.27 346.778 C 291.212 332.529 280.16 317.626 273.003 300.974 C 272.466 299.736 272.466 299.736 271.918 298.474 C 267.944 287.609 268.134 273.917 272.742 263.331 C 273.178 262.468 273.613 261.605 274.062 260.716 C 274.487 259.853 274.911 258.989 275.349 258.1 C 288.495 234.017 316.677 216.088 342.318 207.992 C 372.488 199.137 402.214 200.545 430.472 215.202 C 436.284 218.59 441.522 222.578 446.748 226.814 C 447.838 227.697 447.838 227.697 448.95 228.598 C 450.349 229.752 451.73 230.928 453.105 232.111 C 451.554 203.686 435.821 171.231 415.512 151.702 C 407.895 145.339 399.255 140.119 389.539 137.822 C 388.753 137.631 387.966 137.44 387.156 137.243 C 370.595 134.514 354.734 137.952 340.806 147.357 C 331.353 154.432 323.633 162.36 316.439 171.724 C 314.939 173.468 313.438 175.212 311.936 176.955 C 289.939 203.925 274.496 237.049 258.634 267.801 C 239.665 304.504 218.732 339.598 190.367 369.836 C 189.698 370.587 189.029 371.339 188.34 372.112 C 173.77 387.838 152.256 398.877 130.812 399.798 C 102.738 400.494 78.428 391.699 57.807 372.286 C 33.184 346.384 27.424 313.076 28.044 278.494 C 29.508 226.03 42.889 171.282 81.611 133.878 C 114.689 103.245 162.012 107.626 194.932 135.302 Z M 89.126 158.614 C 76.25 173.508 68.052 191.06 62.243 209.731 C 61.931 210.725 61.619 211.719 61.297 212.743 C 59.284 219.539 58.329 226.098 57.939 233.171 C 61.389 230.983 64.485 228.803 67.474 226.019 C 88.964 207.281 118.39 202.5 145.872 203.507 C 163.564 204.763 179.399 211.114 195.044 219.133 C 202.128 222.857 202.128 222.857 209.901 223.967 C 214.924 222.116 217.594 219.948 220.031 215.16 C 221.785 209.223 220.313 204.548 217.471 199.178 C 209.762 185.668 199.666 173.726 189.308 162.189 C 188.825 161.649 188.341 161.109 187.843 160.552 C 175.81 147.305 160.314 136.504 141.99 135.488 C 120.285 135.231 104.127 142.755 89.126 158.614 Z M 313.261 250.121 C 312.234 250.975 311.207 251.828 310.149 252.708 C 302.76 259.122 293.764 267.097 292.879 277.439 C 292.853 278.585 292.827 279.73 292.801 280.911 C 292.761 282.038 292.721 283.164 292.681 284.325 C 293.785 293.964 298.865 301.736 304.256 309.582 C 304.91 310.545 305.564 311.509 306.237 312.501 C 315.82 326.518 325.825 339.609 337.627 351.826 C 338.299 352.553 338.971 353.279 339.664 354.028 C 352.518 367.616 369.907 376.996 388.745 377.716 C 408.661 377.167 425.544 368.651 439.601 354.764 C 452.988 340.387 459.89 321.218 459.689 301.644 C 458.493 281.426 449.896 260.979 435.095 246.943 C 398.993 215.115 349.066 220.234 313.261 250.121 Z" fill="#D54A07"/>
</svg>
