<?xml version="1.0" encoding="UTF-8"?>
<!-- Generator: visioncortex VTracer -->
<svg id="svg" version="1.1" xmlns="http://www.w3.org/2000/svg" style="display: block;" viewBox="0 0 512 512"><path d="M0 0 C8.06881631 7.13194359 15.04878854 14.9195042 21.69140625 23.37890625 C22.52592313 24.42196985 23.36056171 25.46493608 24.1953125 26.5078125 C35.31987421 40.5383128 47.4976968 56.60366084 45.69140625 75.37890625 C43.50350888 85.8058 40.0083441 93.57464056 31.19140625 99.75390625 C23.05583814 105.03023485 14.11102484 105.47007851 4.69140625 104.37890625 C-3.52154882 102.33280505 -10.93319055 98.09175426 -18.4309082 94.26513672 C-38.78143122 83.9905625 -61.08635485 82.81840889 -82.80859375 89.50390625 C-102.75475744 96.60093337 -117.64642805 109.65077647 -127.12109375 128.62890625 C-134.53425872 146.31239353 -134.83122374 163.18898509 -129.30859375 181.37890625 C-129.04304688 182.28382813 -128.7775 183.18875 -128.50390625 184.12109375 C-122.50802481 201.53770174 -108.05603596 214.22902304 -91.99609375 222.12890625 C-77.91281455 228.20758659 -62.83204791 229.4729536 -48.30859375 224.37890625 C-28.24460774 215.95203213 -14.01692355 200.55868542 -1.30859375 183.37890625 C-0.83454102 182.74388184 -0.36048828 182.10885742 0.12792969 181.45458984 C13.87214983 162.9315677 24.81749101 142.67035048 35.69140625 122.37890625 C36.28211914 121.27708008 36.87283203 120.17525391 37.48144531 119.04003906 C39.38558636 115.486767 41.28871452 111.93295449 43.19140625 108.37890625 C45.69011826 103.71154847 48.18992873 99.04478276 50.69140625 94.37890625 C51.22797852 93.37762695 51.76455078 92.37634766 52.31738281 91.34472656 C68.49510628 61.21821042 85.47758276 30.87353949 109.69140625 6.37890625 C110.61179687 5.43402344 111.5321875 4.48914063 112.48046875 3.515625 C129.18733021 -12.75400455 149.50320279 -22.07929068 173.02734375 -21.8359375 C184.18467226 -21.18172314 194.65909167 -18.63038899 204.69140625 -13.62109375 C205.66464844 -13.14027344 206.63789063 -12.65945312 207.640625 -12.1640625 C235.77123588 2.94924609 252.27334367 34.48300527 261.35083008 63.93969727 C268.32287841 87.76522297 271.87272344 112.58816747 272.69140625 137.37890625 C272.75328125 139.05146484 272.75328125 139.05146484 272.81640625 140.7578125 C273.39162187 171.20828927 267.43729519 200.10579676 246.10180664 223.0090332 C231.46054161 238.11273248 211.12806021 248.93606687 189.78515625 249.58203125 C161.10660643 249.98685667 139.73685081 240.03130663 119.10717773 220.02905273 C113.18072018 214.16269552 107.79266966 207.98154485 102.69140625 201.37890625 C102.01126465 200.50540527 102.01126465 200.50540527 101.31738281 199.61425781 C90.87923118 186.16389408 80.4476336 172.09747601 73.69140625 156.37890625 C73.18480469 155.21101563 73.18480469 155.21101563 72.66796875 154.01953125 C68.91684154 143.76415594 69.09616271 130.8401665 73.4453125 120.84765625 C73.85652344 120.03296875 74.26773438 119.21828125 74.69140625 118.37890625 C75.09230469 117.56421875 75.49320313 116.74953125 75.90625 115.91015625 C88.31524035 93.17832466 114.91621407 76.25482172 139.11914062 68.61230469 C167.59612411 60.25421093 195.65562211 61.583307 222.328125 75.41796875 C227.81373154 78.6163131 232.75839062 82.38017388 237.69140625 86.37890625 C238.72007812 87.21228516 238.72007812 87.21228516 239.76953125 88.0625 C241.09030276 89.1518279 242.39407759 90.26176212 243.69140625 91.37890625 C242.22792432 64.54840422 227.37715514 33.91328019 208.20703125 15.48046875 C201.01712862 9.47399729 192.86261709 4.54632131 183.69140625 2.37890625 C182.94890625 2.1984375 182.20640625 2.01796875 181.44140625 1.83203125 C165.80991045 -0.74361294 150.83884067 2.50127462 137.69140625 11.37890625 C128.7688174 18.05733661 121.48162475 25.54002601 114.69140625 34.37890625 C113.27533629 36.02525301 111.8586505 37.67107025 110.44140625 39.31640625 C89.6781094 64.77401369 75.1007224 96.03969298 60.12890625 125.06640625 C42.22376512 159.71091138 22.46490413 192.83658869 -4.30859375 221.37890625 C-4.94023437 222.08789062 -5.571875 222.796875 -6.22265625 223.52734375 C-19.97550895 238.37073103 -40.28250562 248.79035792 -60.5234375 249.66015625 C-87.02321124 250.31664611 -109.96918686 242.01547415 -129.43359375 223.69140625 C-152.67508171 199.24194074 -158.11187459 167.80275856 -157.52734375 135.16015625 C-156.14561318 85.63893262 -143.51471091 33.96186636 -106.96484375 -1.34375 C-75.74254999 -30.25909992 -31.07397921 -26.12335948 0 0 Z M-99.87109375 22.00390625 C-112.02539233 36.06266359 -119.76315412 52.63017171 -125.24609375 70.25390625 C-125.54080566 71.19226318 -125.83551758 72.13062012 -126.13916016 73.09741211 C-128.03974727 79.51231711 -128.94058019 85.70289758 -129.30859375 92.37890625 C-126.05207536 90.31379703 -123.13018774 88.25665027 -120.30859375 85.62890625 C-100.0245054 67.94189764 -72.24847457 63.42899512 -46.30859375 64.37890625 C-29.60850939 65.56451062 -14.66227337 71.55917116 0.10546875 79.12890625 C6.79269245 82.64397018 6.79269245 82.64397018 14.12890625 83.69140625 C18.87087241 81.94436608 21.39067948 79.89759983 23.69140625 75.37890625 C25.34681058 69.77446508 23.95765945 65.36166221 21.27490234 60.29321289 C13.99840266 47.5410689 4.46799334 36.26879579 -5.30859375 25.37890625 C-5.76492187 24.86908203 -6.22125 24.35925781 -6.69140625 23.83398438 C-18.04980218 11.32978535 -32.67594113 1.13466098 -49.97265625 0.17578125 C-70.45999939 -0.06667251 -85.71177202 7.0347793 -99.87109375 22.00390625 Z M111.69140625 108.37890625 C110.72203125 109.18457031 109.75265625 109.99023438 108.75390625 110.8203125 C101.78009371 116.87502203 93.28830713 124.40201569 92.453125 134.1640625 C92.42863281 135.24558594 92.40414062 136.32710937 92.37890625 137.44140625 C92.34152344 138.50488281 92.30414063 139.56835938 92.265625 140.6640625 C93.30838191 149.76187737 98.1034008 157.09860519 103.19140625 164.50390625 C103.80870605 165.41333984 104.42600586 166.32277344 105.06201172 167.25976562 C114.1075125 180.49029025 123.55069816 192.84729612 134.69140625 204.37890625 C135.325625 205.0646875 135.95984375 205.75046875 136.61328125 206.45703125 C148.74648246 219.28355824 165.16026225 228.13673244 182.94140625 228.81640625 C201.74020226 228.2985951 217.67650208 220.26018074 230.9453125 207.15234375 C243.58131982 193.58122394 250.09563871 175.48763947 249.90625 157.01171875 C248.7776245 137.92768757 240.66307613 118.6275014 226.69140625 105.37890625 C192.61510381 75.33612532 145.48785016 80.16826349 111.69140625 108.37890625 Z " transform="translate(197.30859375,155.62109375)" style="fill: #D54A07;"/></svg>